PathFileType	4	(X/Y/Z)	c:/Users/goper/Files/vsCode/490R/osim_files/C11/C11_SSWS_04.trc
DataRate	CameraRate	NumFrames	NumMarkers	Units                	OrigDataRate	OrigDataStartFrame	OrigNumFrames
120.00	120.00	5	36	mm	120.0	435	1159
                Frame#	Time	LPSI			LASI			LTH1			LTH2			LTH3			LTH4			LLFE			LMFE			LSH1			LSH2			LSH3			LSH4			LLMA			LMMA			LCAL			LMTP			LTOE			LMTP			RPSI			RASI			RTH1			RTH2			RTH3			RTH4			RLFE			RMFE			RSH1			RSH2			RSH3			RSH4			RLMA			RMMA			RCAL			RMTP			RTOE			RMTP		
		X1	Y1	Z1	X2	Y2	Z2	X3	Y3	Z3	X4	Y4	Z4	X5	Y5	Z5	X6	Y6	Z6	X7	Y7	Z7	X8	Y8	Z8	X9	Y9	Z9	X10	Y10	Z10	X11	Y11	Z11	X12	Y12	Z12	X13	Y13	Z13	X14	Y14	Z14	X15	Y15	Z15	X16	Y16	Z16	X17	Y17	Z17	X18	Y18	Z18	X19	Y19	Z19	X20	Y20	Z20	X21	Y21	Z21	X22	Y22	Z22	X23	Y23	Z23	X24	Y24	Z24	X25	Y25	Z25	X26	Y26	Z26	X27	Y27	Z27	X28	Y28	Z28	X29	Y29	Z29	X30	Y30	Z30	X31	Y31	Z31	X32	Y32	Z32	X33	Y33	Z33	X34	Y34	Z34	X35	Y35	Z35	X36	Y36	Z36

435	3.61667	1229.50647	995.37994	250.98476	1039.72522	992.28271	319.42770	1103.67883	609.44843	349.24246	1086.98157	561.63239	344.23083	1042.82861	615.53662	361.81204	1037.06042	570.87738	352.27063	1054.24780	499.31512	342.83167	1032.48450	513.25244	236.21986	1107.74280	395.16068	341.34906	1109.50281	350.69403	336.28857	1046.77478	388.13171	347.53488	1056.82922	344.12869	341.71310	1103.62122	93.34459	259.63135	1064.41736	113.32642	173.34476	1154.88281	61.00715	196.15051	995.80457	40.93560	300.18875	916.24878	59.67562	240.77113	951.01923	45.96337	189.75902	1226.98157	1002.74347	166.61346	1064.39465	980.26849	84.76987	1043.79211	616.59052	53.65463	1026.52808	576.46283	59.91822	982.30774	633.97955	55.31177	975.51514	591.78455	60.28212	986.53021	508.09756	71.92275	1001.12659	496.32834	187.86043	1089.21716	479.78802	58.25881	1121.85547	447.88538	58.17854	1050.71912	430.07611	59.86979	1090.45410	402.16531	55.11689	1325.66479	273.32852	86.51450	1299.54236	253.71346	179.18987	1387.88562	303.70047	143.01611	1281.82166	116.01295	155.45065	1267.64807	123.89726	105.86452	1252.20752	80.82172	45.90585
436	3.62500	1220.77942	996.81305	250.76146	1031.21265	992.54700	320.18942	1100.16431	610.10242	349.20123	1084.39307	562.31433	344.06796	1038.95068	616.08234	362.28461	1034.79773	571.02209	352.66455	1053.92651	499.74408	343.17969	1030.32690	512.78229	237.02699	1107.45496	395.88602	340.79465	1109.31641	351.23837	335.87579	1046.40808	388.11893	347.70328	1056.69666	344.26910	341.86267	1103.61987	93.46077	259.51981	1064.35327	113.29549	173.22549	1155.02454	61.41249	195.85036	995.82312	40.96724	300.21506	916.26575	59.64296	240.79420	950.98486	45.89883	189.82570	1218.28162	1004.24811	166.65808	1055.14001	982.59357	85.45596	1028.14612	620.64777	52.90960	1009.77747	580.73132	59.73478	966.73529	639.07745	55.64619	958.92212	596.96338	60.81387	968.72937	512.79706	72.04066	984.08337	501.63062	187.78137	1070.56006	482.00967	58.19044	1102.57581	449.48846	57.50840	1030.61914	433.42227	59.79248	1069.71948	404.44977	54.82603	1301.97180	269.28876	84.34969	1274.99915	249.58467	177.11201	1364.99536	296.84262	140.88229	1252.53540	112.94567	152.44881	1238.43799	121.56649	102.90997	1228.52417	80.98296	44.17561
437	3.63333	1211.74487	997.56036	250.63867	1022.78699	992.75134	320.94919	1096.60645	610.74261	349.12338	1082.11450	563.11615	343.86237	1036.02380	616.35980	362.42560	1033.59082	571.06311	353.13351	1051.74731	499.78229	343.22583	1028.25647	512.37506	237.71544	1107.08093	396.37927	340.24832	1109.25085	351.69995	335.47482	1046.15796	388.10190	347.84009	1056.72375	344.36407	342.05457	1103.57422	93.50365	259.38501	1064.28247	113.26205	173.12047	1154.63879	61.15167	195.86475	995.92883	40.73424	299.91171	916.25659	59.62375	240.82233	950.92151	45.86977	189.89983	1209.59973	1005.69000	166.64185	1045.89734	985.00183	86.23019	1012.28467	624.55365	52.48180	993.42139	585.06494	59.30168	951.19690	644.11389	56.16837	942.57178	601.92218	61.42801	950.92029	517.31750	72.60992	966.66870	506.36905	187.81038	1052.06677	483.86197	58.21482	1083.22388	450.45236	57.05542	1010.86163	436.64783	59.65324	1049.14954	406.51749	54.59083	1276.85095	263.98196	82.48952	1249.93140	246.14629	176.73378	1341.77344	289.22437	138.69249	1222.05859	109.52408	149.57031	1208.56824	118.78856	100.26101	1204.13123	81.02046	42.53268
438	3.64167	1203.21790	998.48889	250.40369	1014.43976	992.89679	321.70508	1092.97473	611.37024	349.00769	1080.17322	564.02008	343.79813	1033.05115	616.33728	362.48856	1030.47900	571.04498	353.27725	1050.57385	499.86481	343.33322	1026.24744	512.04700	238.26343	1106.65173	396.71271	339.84821	1109.73120	352.46512	334.99060	1045.53577	387.88116	347.89148	1056.46899	344.35529	342.17969	1103.51904	93.54217	259.22498	1064.17346	113.20069	172.97612	1154.59888	61.16282	195.82350	995.90735	40.65704	299.91840	916.22266	59.57528	240.85591	950.87903	45.82113	189.89276	1200.85303	1006.91388	166.57483	1036.85327	987.18799	87.18302	996.62469	628.52618	51.96443	977.36072	589.45966	58.86342	936.17114	649.36432	56.84363	926.66406	607.01398	61.95312	933.93933	522.52191	74.14222	951.49304	510.66940	187.39275	1034.21802	485.28705	58.20470	1064.27173	451.14175	56.66784	991.43719	439.80038	59.52963	1028.76013	408.35715	54.40781	1251.92834	258.19617	80.53162	1226.50244	239.75497	174.87917	1317.88257	280.21152	136.52144	1190.52271	105.67849	146.97891	1177.59583	115.64502	97.83182	1179.02234	80.92812	40.98306
439	3.65000	1194.95032	999.29730	250.09334	1006.16223	992.98401	322.45517	1089.23914	611.98596	348.85294	1077.39880	564.60748	343.65262	1030.81042	616.84625	363.14209	1028.11682	571.04907	353.48901	1049.29297	499.97516	343.53979	1024.27795	511.79056	238.66066	1107.33154	397.93130	338.53558	1108.89941	352.53662	334.93311	1045.15063	387.77676	348.05258	1056.75513	344.43069	342.33118	1103.48291	93.59303	259.04828	1064.44287	112.54880	172.53700	1153.73169	60.06160	194.97502	995.90131	40.59628	299.93088	916.21844	59.53732	240.86931	950.80188	45.78204	189.95717	1192.20593	1008.02954	166.45688	1027.52832	989.24963	88.17831	981.37750	632.51068	51.38543	961.48322	593.73669	58.45639	921.17224	653.88660	56.84248	910.90155	611.89404	62.53350	917.37341	527.26678	74.45718	935.79791	514.60089	187.12872	1016.88031	486.67831	58.08960	1045.67859	451.47787	56.26234	972.48096	442.76392	59.29775	1008.56714	409.95767	54.27349	1226.60767	251.74135	78.59840	1198.98047	234.20062	170.98987	1293.74341	270.69659	134.33795	1159.53101	101.89834	144.97476	1146.72717	112.29620	95.82198	1153.19043	80.69983	39.53271
